Coordinates
version=1
nRows=22
nColumns=34
inDegrees=no

Units are S.I. units (second, meters, Newtons, ...)
If the header above contains a line with 'inDegrees', this indicates whether rotational values are in degrees (yes) or radians (no).

endheader
time	pelvis_tilt	pelvis_list	pelvis_rotation	pelvis_tx	pelvis_ty	pelvis_tz	hip_flexion_r	hip_adduction_r	hip_rotation_r	knee_angle_r	ankle_angle_r	subtalar_angle_r	mtp_angle_r	hip_flexion_l	hip_adduction_l	hip_rotation_l	knee_angle_l	ankle_angle_l	subtalar_angle_l	mtp_angle_l	lumbar_extension	lumbar_bending	lumbar_rotation	arm_flex_r	arm_add_r	arm_rot_r	elbow_flex_r	pro_sup_r	arm_flex_l	arm_add_l	arm_rot_l	elbow_flex_l	pro_sup_l
6.44	-0.374752	-0.0185317	0.0289754	-0.338607	0.533788	-0.583065	1.80711	-0.320745	0.053642	1.9233	0.677835	0.111918	-0.141521	1.83111	-0.340426	0.0719657	1.91682	0.673841	0.219042	-0.141521	-0.660928	0.0418048	-0.0428359	1.39725	-0.244832	-0.120811	2.07139	1.2726	1.40461	-0.346295	-0.0958189	1.92619	1.44598
6.45	-0.37432	-0.0182175	0.0282402	-0.338441	0.533556	-0.583004	1.80728	-0.320362	0.0538754	1.92408	0.678196	0.112338	-0.141521	1.83106	-0.342026	0.0717906	1.91776	0.674549	0.219813	-0.141521	-0.661009	0.0417443	-0.0429775	1.39652	-0.244061	-0.120428	2.0717	1.27274	1.40187	-0.347367	-0.0988564	1.92741	1.44823
6.46	-0.374063	-0.0179618	0.0275451	-0.33829	0.533536	-0.582951	1.80698	-0.319871	0.0538548	1.92414	0.67835	0.112492	-0.141521	1.83061	-0.343479	0.0714222	1.91802	0.675049	0.220332	-0.141521	-0.660727	0.041722	-0.0430621	1.3957	-0.24354	-0.120087	2.07195	1.27279	1.39884	-0.348479	-0.101722	1.92851	1.45073
6.47	-0.373932	-0.0178307	0.0268975	-0.338154	0.533722	-0.582909	1.80615	-0.319299	0.0535196	1.92349	0.678294	0.112388	-0.141521	1.82977	-0.344722	0.0709616	1.91762	0.675331	0.220569	-0.141521	-0.660139	0.0418218	-0.0430212	1.39486	-0.243353	-0.119752	2.07215	1.27275	1.39553	-0.349542	-0.104395	1.92945	1.45316
6.48	-0.373929	-0.0178341	0.0262997	-0.338035	0.534105	-0.582879	1.80483	-0.318654	0.0528705	1.92217	0.678024	0.112032	-0.141521	1.82858	-0.34571	0.0704498	1.9166	0.675383	0.220496	-0.141521	-0.659246	0.0420496	-0.0428405	1.394	-0.243529	-0.119431	2.07233	1.27264	1.39202	-0.350513	-0.106837	1.93019	1.45524
6.49	-0.374108	-0.0179251	0.0257515	-0.337935	0.534672	-0.582858	1.80314	-0.317928	0.0519709	1.92022	0.677542	0.111432	-0.141521	1.8271	-0.346417	0.0698636	1.91496	0.675199	0.220095	-0.141521	-0.658001	0.0423369	-0.0425659	1.39311	-0.244047	-0.119175	2.07255	1.27247	1.38836	-0.351402	-0.109012	1.93074	1.45677
6.5	-0.374548	-0.0180124	0.0252502	-0.337858	0.535405	-0.58284	1.80124	-0.317098	0.0509318	1.91767	0.67685	0.110589	-0.141521	1.82537	-0.346847	0.0691245	1.91271	0.67478	0.219362	-0.141521	-0.656333	0.0425577	-0.0422897	1.39214	-0.244846	-0.119063	2.07288	1.27222	1.38467	-0.352261	-0.110892	1.93117	1.45773
6.51	-0.375341	-0.0179827	0.0247872	-0.33781	0.536292	-0.582817	1.79933	-0.316127	0.0498857	1.91456	0.675952	0.109492	-0.141521	1.82345	-0.347031	0.0681214	1.90982	0.674141	0.218314	-0.141521	-0.654171	0.0425515	-0.0421207	1.39103	-0.245843	-0.119196	2.07342	1.27188	1.38103	-0.353154	-0.112473	1.93152	1.45823
6.52	-0.376574	-0.0177245	0.0243451	-0.337795	0.537319	-0.582778	1.79756	-0.314967	0.048958	1.91093	0.674853	0.108127	-0.141521	1.82136	-0.347038	0.0667365	1.90628	0.67331	0.216995	-0.141521	-0.651451	0.0421504	-0.0421485	1.38971	-0.246966	-0.119688	2.07427	1.27147	1.37755	-0.354129	-0.113764	1.9319	1.45848
6.53	-0.378314	-0.01715	0.0238973	-0.337815	0.538477	-0.582711	1.79607	-0.313561	0.0482426	1.90681	0.673554	0.106477	-0.141521	1.81913	-0.346957	0.064872	1.90208	0.672316	0.215468	-0.141521	-0.648133	0.0412076	-0.0424175	1.3881	-0.248173	-0.120645	2.07552	1.27101	1.37429	-0.355195	-0.114782	1.93237	1.45875
6.54	-0.380599	-0.0162124	0.0234119	-0.337872	0.539756	-0.58261	1.7949	-0.311861	0.047785	1.9022	0.672058	0.104532	-0.141521	1.81678	-0.346891	0.0624721	1.89722	0.671191	0.213809	-0.141521	-0.644204	0.0396268	-0.0429183	1.38614	-0.249451	-0.122139	2.07725	1.27052	1.37128	-0.356326	-0.115546	1.93296	1.4593
6.55	-0.383418	-0.0149148	0.022856	-0.337964	0.541152	-0.582469	1.79407	-0.309838	0.047575	1.89712	0.670374	0.102303	-0.141521	1.81432	-0.346933	0.0595371	1.89172	0.669959	0.212092	-0.141521	-0.639687	0.0373878	-0.0435949	1.3838	-0.250814	-0.124173	2.07947	1.27003	1.36849	-0.357471	-0.116088	1.93369	1.46032
6.56	-0.386702	-0.0133148	0.0222017	-0.338086	0.542662	-0.582291	1.79347	-0.307496	0.0475474	1.89157	0.668528	0.0998283	-0.141521	1.81174	-0.347149	0.0561297	1.88565	0.668639	0.210381	-0.141521	-0.634657	0.0345636	-0.0443619	1.3811	-0.252283	-0.12666	2.08213	1.26959	1.36588	-0.358581	-0.116471	1.93455	1.46192
6.57	-0.390317	-0.0115207	0.0214309	-0.338232	0.544286	-0.582084	1.79293	-0.304878	0.0475874	1.88556	0.666556	0.0971784	-0.141521	1.80903	-0.347569	0.0523723	1.87907	0.667239	0.208721	-0.141521	-0.629239	0.0313234	-0.0451224	1.37812	-0.253871	-0.129431	2.08509	1.26923	1.36336	-0.359621	-0.116795	1.9355	1.46406
6.58	-0.394081	-0.00967666	0.0205369	-0.338391	0.546026	-0.581864	1.79222	-0.302067	0.0475474	1.87911	0.664508	0.0944524	-0.141521	1.80614	-0.348178	0.0484307	1.87209	0.665765	0.207132	-0.141521	-0.623599	0.0279065	-0.0457853	1.375	-0.255576	-0.132258	2.08815	1.26901	1.36079	-0.360573	-0.117199	1.93649	1.46663
6.59	-0.397806	-0.00792332	0.0195218	-0.338555	0.547887	-0.581645	1.79112	-0.299164	0.0472833	1.87223	0.662433	0.0917565	-0.141521	1.80302	-0.348936	0.0444726	1.86482	0.664217	0.205614	-0.141521	-0.617908	0.0245574	-0.0462821	1.37188	-0.257376	-0.134921	2.09106	1.26897	1.35806	-0.361426	-0.117836	1.9375	1.46946
6.6	-0.401346	-0.00636001	0.0183937	-0.338713	0.549869	-0.58144	1.78946	-0.296263	0.0466931	1.86496	0.660365	0.0891774	-0.141521	1.79963	-0.349791	0.0406234	1.85733	0.662594	0.204149	-0.141521	-0.612285	0.0214566	-0.0465768	1.36884	-0.259235	-0.137263	2.09365	1.26913	1.35504	-0.362159	-0.118844	1.9385	1.47247
6.61	-0.404617	-0.0050302	0.0171634	-0.33886	0.551971	-0.581256	1.78716	-0.293431	0.0457303	1.85734	0.658318	0.0867679	-0.141521	1.79594	-0.350698	0.0369488	1.84969	0.660897	0.202711	-0.141521	-0.606785	0.0186911	-0.0466623	1.36587	-0.261117	-0.139225	2.09579	1.26947	1.35162	-0.362731	-0.120331	1.93948	1.47562
6.62	-0.40759	-0.00393082	0.0158436	-0.338988	0.554189	-0.581094	1.78422	-0.290713	0.0443958	1.84939	0.656281	0.0845494	-0.141521	1.79194	-0.351624	0.0334615	1.8419	0.659131	0.201272	-0.141521	-0.601404	0.016265	-0.0465503	1.36288	-0.262981	-0.140835	2.09745	1.26996	1.34767	-0.363084	-0.122365	1.94046	1.47883
6.63	-0.410277	-0.00302907	0.0144476	-0.339093	0.556518	-0.580951	1.78069	-0.288127	0.0427238	1.84115	0.654227	0.0825172	-0.141521	1.7876	-0.35255	0.0301374	1.83398	0.657308	0.199816	-0.141521	-0.596098	0.0141266	-0.04626	1.35971	-0.264793	-0.142191	2.09864	1.27052	1.34309	-0.363148	-0.124977	1.94147	1.48196
6.64	-0.412709	-0.00227696	0.0129869	-0.339169	0.558952	-0.580823	1.77665	-0.28567	0.0407722	1.83267	0.65211	0.0806452	-0.141521	1.78293	-0.353471	0.0269295	1.82591	0.655443	0.198332	-0.141521	-0.590809	0.0121963	-0.045812	1.35617	-0.266522	-0.14342	2.0994	1.2711	1.33778	-0.362849	-0.128176	1.94256	1.48486
6.65	-0.414923	-0.00162221	0.0114687	-0.339213	0.561488	-0.580704	1.77216	-0.283312	0.038614	1.82397	0.649873	0.0788864	-0.141521	1.7779	-0.354393	0.0237804	1.81767	0.65355	0.196815	-0.141521	-0.585475	0.010389	-0.0452257	1.35207	-0.26814	-0.144648	2.09981	1.27164	1.33162	-0.362125	-0.131961	1.94379	1.48746
